<?xml version="1.0" encoding="utf-8"?>
<!-- Generator: Adobe Illustrator 26.0.2, SVG Export Plug-In . SVG Version: 6.00 Build 0)  -->
<svg version="1.1" id="Layer_1" xmlns="http://www.w3.org/2000/svg" xmlns:xlink="http://www.w3.org/1999/xlink" x="0px" y="0px"
	 width="1200.0001px" height="1200px" viewBox="0 0 1200.0001 1200" style="enable-background:new 0 0 1200.0001 1200;"
	 xml:space="preserve">
<style type="text/css">
	.st0{fill:#5BC682;}
	.st1{fill:#191A2E;}
</style>
<g>
	<path class="st0" d="M776.051,215.5417v179.7873c0,163.1058-132.2231,295.3289-295.3289,295.3289l0,0
		c-19.4242,0-38.3957-1.9294-56.7729-5.5115V800.691h295.3289c163.1058,0,295.329-132.2231,295.329-295.329l0,0
		C1014.6071,361.6805,911.986,242.0204,776.051,215.5417z"/>
	<circle class="st0" cx="519.6512" cy="980.6715" r="119.3285"/>
	<path class="st1" d="M480.7221,690.6579c163.1058,0,295.3289-132.2231,295.3289-295.3289V215.5417V100H185.3931v295.3289
		c0,143.6787,102.6239,263.3417,238.556,289.8175C442.3264,688.7285,461.2979,690.6579,480.7221,690.6579L480.7221,690.6579z"/>
</g>
</svg>
